<?xml version="1.0" standalone="no"?><!DOCTYPE svg PUBLIC "-//W3C//DTD SVG 1.1//EN" "http://www.w3.org/Graphics/SVG/1.1/DTD/svg11.dtd"><svg t="1673619658317" class="icon" viewBox="0 0 1024 1024" version="1.1" xmlns="http://www.w3.org/2000/svg" p-id="6606" xmlns:xlink="http://www.w3.org/1999/xlink" width="200" height="200"><path d="M810.666667 554.666667h-85.333334a42.666667 42.666667 0 0 0 0 85.333333h38.826667A256 256 0 0 1 554.666667 849.493333V469.333333h42.666666a42.666667 42.666667 0 0 0 0-85.333333h-42.666666V333.653333a128 128 0 1 0-85.333334 0V384h-42.666666a42.666667 42.666667 0 0 0 0 85.333333h42.666666v380.16A256 256 0 0 1 259.84 640H298.666667a42.666667 42.666667 0 0 0 0-85.333333H213.333333a42.666667 42.666667 0 0 0-42.666666 42.666666 341.333333 341.333333 0 0 0 682.666666 0 42.666667 42.666667 0 0 0-42.666666-42.666666z m-298.666667-298.666667a42.666667 42.666667 0 1 1 42.666667-42.666667 42.666667 42.666667 0 0 1-42.666667 42.666667z" p-id="6607" fill="#ffffff"></path></svg>